{
  "video_file": "G:\\TUD_CESE\\OneDrive - Delft University of Technology\\Smart Cup\\relativeWorks\\hargpt_dir\\cup_integration\\videos\\GL040221.lrv",
  "timecode_csv": "G:\\TUD_CESE\\OneDrive - Delft University of Technology\\Smart Cup\\relativeWorks\\hargpt_dir\\cup_integration\\videos\\video_timecode_1HzGL040221.csv",
  "resolved_start_timecode": "13:57:38:22",
  "resolved_fps": 59.94005994005994,
  "duration_seconds": 707.712,
  "start_pts_seconds": 0.0,
  "ffprobe": {
    "streams": [
      {
        "index": 0,
        "codec_name": "h264",
        "codec_long_name": "H.264 / AVC / MPEG-4 AVC / MPEG-4 part 10",
        "profile": "Main",
        "codec_type": "video",
        "codec_tag_string": "avc1",
        "codec_tag": "0x31637661",
        "mime_codec_string": "avc1.4d402a",
        "width": 848,
        "height": 480,
        "coded_width": 848,
        "coded_height": 480,
        "has_b_frames": 0,
        "sample_aspect_ratio": "1:1",
        "display_aspect_ratio": "53:30",
        "pix_fmt": "yuvj420p",
        "level": 42,
        "color_range": "tv",
        "color_space": "bt709",
        "color_transfer": "bt709",
        "color_primaries": "bt709",
        "chroma_location": "left",
        "field_order": "progressive",
        "refs": 1,
        "is_avc": "true",
        "nal_length_size": "4",
        "id": "0x1",
        "r_frame_rate": "60000/1001",
        "avg_frame_rate": "60000/1001",
        "time_base": "1/60000",
        "start_pts": 0,
        "start_time": "0.000000",
        "duration_ts": 42462420,
        "duration": "707.707000",
        "bit_rate": "2497183",
        "bits_per_raw_sample": "8",
        "nb_frames": "42420",
        "extradata_size": 60,
        "disposition": {
          "default": 1,
          "dub": 0,
          "original": 0,
          "comment": 0,
          "lyrics": 0,
          "karaoke": 0,
          "forced": 0,
          "hearing_impaired": 0,
          "visual_impaired": 0,
          "clean_effects": 0,
          "attached_pic": 0,
          "timed_thumbnails": 0,
          "non_diegetic": 0,
          "captions": 0,
          "descriptions": 0,
          "metadata": 0,
          "dependent": 0,
          "still_image": 0,
          "multilayer": 0
        },
        "tags": {
          "creation_time": "2025-07-17T13:58:28.000000Z",
          "language": "eng",
          "handler_name": "\u000bGoPro AVC  ",
          "encoder": "GoPro AVC encoder",
          "timecode": "13:57:38:22"
        }
      },
      {
        "index": 1,
        "codec_name": "aac",
        "codec_long_name": "AAC (Advanced Audio Coding)",
        "profile": "LC",
        "codec_type": "audio",
        "codec_tag_string": "mp4a",
        "codec_tag": "0x6134706d",
        "mime_codec_string": "mp4a.40.2",
        "sample_fmt": "fltp",
        "sample_rate": "48000",
        "channels": 2,
        "channel_layout": "stereo",
        "bits_per_sample": 0,
        "initial_padding": 0,
        "id": "0x2",
        "r_frame_rate": "0/0",
        "avg_frame_rate": "0/0",
        "time_base": "1/48000",
        "start_pts": 0,
        "start_time": "0.000000",
        "duration_ts": 33970176,
        "duration": "707.712000",
        "bit_rate": "189374",
        "nb_frames": "33174",
        "extradata_size": 5,
        "disposition": {
          "default": 1,
          "dub": 0,
          "original": 0,
          "comment": 0,
          "lyrics": 0,
          "karaoke": 0,
          "forced": 0,
          "hearing_impaired": 0,
          "visual_impaired": 0,
          "clean_effects": 0,
          "attached_pic": 0,
          "timed_thumbnails": 0,
          "non_diegetic": 0,
          "captions": 0,
          "descriptions": 0,
          "metadata": 0,
          "dependent": 0,
          "still_image": 0,
          "multilayer": 0
        },
        "tags": {
          "creation_time": "2025-07-17T13:58:28.000000Z",
          "language": "eng",
          "handler_name": "\u000bGoPro AAC  ",
          "timecode": "13:57:38:22"
        }
      },
      {
        "index": 2,
        "codec_type": "data",
        "codec_tag_string": "tmcd",
        "codec_tag": "0x64636d74",
        "id": "0x3",
        "r_frame_rate": "0/0",
        "avg_frame_rate": "60000/1001",
        "time_base": "1/60000",
        "start_pts": 0,
        "start_time": "0.000000",
        "duration_ts": 42462420,
        "duration": "707.707000",
        "nb_frames": "1",
        "extradata_size": 18,
        "disposition": {
          "default": 1,
          "dub": 0,
          "original": 0,
          "comment": 0,
          "lyrics": 0,
          "karaoke": 0,
          "forced": 0,
          "hearing_impaired": 0,
          "visual_impaired": 0,
          "clean_effects": 0,
          "attached_pic": 0,
          "timed_thumbnails": 0,
          "non_diegetic": 0,
          "captions": 0,
          "descriptions": 0,
          "metadata": 0,
          "dependent": 0,
          "still_image": 0,
          "multilayer": 0
        },
        "tags": {
          "creation_time": "2025-07-17T13:58:28.000000Z",
          "language": "eng",
          "handler_name": "\u000bGoPro TCD  ",
          "timecode": "13:57:38:22"
        }
      },
      {
        "index": 3,
        "codec_name": "bin_data",
        "codec_long_name": "binary data",
        "codec_type": "data",
        "codec_tag_string": "gpmd",
        "codec_tag": "0x646d7067",
        "id": "0x4",
        "r_frame_rate": "0/0",
        "avg_frame_rate": "0/0",
        "time_base": "1/1000",
        "start_pts": 0,
        "start_time": "0.000000",
        "duration_ts": 707712,
        "duration": "707.712000",
        "bit_rate": "39485",
        "nb_frames": "707",
        "disposition": {
          "default": 1,
          "dub": 0,
          "original": 0,
          "comment": 0,
          "lyrics": 0,
          "karaoke": 0,
          "forced": 0,
          "hearing_impaired": 0,
          "visual_impaired": 0,
          "clean_effects": 0,
          "attached_pic": 0,
          "timed_thumbnails": 0,
          "non_diegetic": 0,
          "captions": 0,
          "descriptions": 0,
          "metadata": 0,
          "dependent": 0,
          "still_image": 0,
          "multilayer": 0
        },
        "tags": {
          "creation_time": "2025-07-17T13:58:28.000000Z",
          "language": "eng",
          "handler_name": "\u000bGoPro MET  "
        }
      },
      {
        "index": 4,
        "codec_type": "data",
        "codec_tag_string": "fdsc",
        "codec_tag": "0x63736466",
        "id": "0x5",
        "r_frame_rate": "0/0",
        "avg_frame_rate": "0/0",
        "time_base": "1/60000",
        "start_pts": 0,
        "start_time": "0.000000",
        "duration_ts": 42462720,
        "duration": "707.712000",
        "bit_rate": "13808",
        "nb_frames": "76303",
        "disposition": {
          "default": 1,
          "dub": 0,
          "original": 0,
          "comment": 0,
          "lyrics": 0,
          "karaoke": 0,
          "forced": 0,
          "hearing_impaired": 0,
          "visual_impaired": 0,
          "clean_effects": 0,
          "attached_pic": 0,
          "timed_thumbnails": 0,
          "non_diegetic": 0,
          "captions": 0,
          "descriptions": 0,
          "metadata": 0,
          "dependent": 0,
          "still_image": 0,
          "multilayer": 0
        },
        "tags": {
          "creation_time": "2025-07-17T13:58:28.000000Z",
          "language": "eng",
          "handler_name": "\u000bGoPro SOS  "
        }
      }
    ],
    "format": {
      "filename": "G:\\TUD_CESE\\OneDrive - Delft University of Technology\\Smart Cup\\relativeWorks\\hargpt_dir\\cup_integration\\videos\\GL040221.lrv",
      "nb_streams": 5,
      "nb_programs": 0,
      "nb_stream_groups": 0,
      "format_name": "mov,mp4,m4a,3gp,3g2,mj2",
      "format_long_name": "QuickTime / MOV",
      "start_time": "0.000000",
      "duration": "707.712000",
      "size": "243643372",
      "bit_rate": "2754152",
      "probe_score": 100,
      "tags": {
        "major_brand": "mp41",
        "minor_version": "538120216",
        "compatible_brands": "mp41",
        "creation_time": "2025-07-17T13:58:28.000000Z",
        "firmware": "HD7.01.01.80.00"
      }
    }
  }
}